<svg width="220" height="40" viewBox="0 0 220 40" fill="none" xmlns="http://www.w3.org/2000/svg">
<path fill-rule="evenodd" clip-rule="evenodd" d="M52.7891 28.8799C51.8239 28.6887 50.8942 28.3807 50 27.9558V24.5143C51.8027 25.4632 53.7827 25.9376 55.9402 25.9376C56.7777 25.9376 57.3915 25.796 57.7819 25.5128C58.1722 25.2295 58.3674 24.8542 58.3674 24.3868C58.3674 23.9195 58.1935 23.569 57.8458 23.3353C57.498 23.1016 56.877 22.8644 55.9828 22.6236L54.535 22.22C53.6834 21.9792 52.9453 21.6995 52.3207 21.3808C51.6962 21.0622 51.1639 20.5842 50.7239 19.9469C50.2839 19.3096 50.0639 18.4882 50.0639 17.4826C50.0639 15.8256 50.5713 14.5651 51.5862 13.7012C52.6011 12.8373 54.0311 12.4054 55.8763 12.4054C56.9835 12.4054 57.9558 12.5045 58.7932 12.7028C59.6307 12.9011 60.4894 13.2055 61.3694 13.6163V16.9303C59.7513 16.0664 57.9203 15.6344 55.8763 15.6344C55.124 15.6344 54.5989 15.7619 54.3008 16.0168C54.0027 16.2717 53.8537 16.6399 53.8537 17.1215C53.8537 17.4472 53.9247 17.7057 54.0666 17.8969C54.2085 18.0881 54.4285 18.2474 54.7266 18.3749C55.0247 18.5023 55.4718 18.651 56.068 18.821L57.537 19.2246C58.4455 19.4795 59.2261 19.7769 59.8791 20.1168C60.532 20.4567 61.0749 20.9595 61.5078 21.6252C61.9408 22.2908 62.1572 23.1476 62.1572 24.1956C62.143 25.7394 61.5859 26.9538 60.4859 27.8389C59.3858 28.7241 57.8706 29.1667 55.9402 29.1667C54.8047 29.1667 53.7543 29.0711 52.7891 28.8799ZM82.9373 16.7816L79.8927 28.9967H75.4641L73.335 21.9863L71.2272 28.9967H66.7987L63.7327 16.7816H67.5226L69.0981 24.3443L71.1208 16.7816H75.5493L77.572 24.3443L79.1475 16.7816H82.9373ZM89.2714 25.534C89.7611 25.9164 90.4815 26.1076 91.4325 26.1076C91.986 26.1076 92.5148 26.0403 93.0186 25.9058C93.5225 25.7712 94.1009 25.5411 94.7539 25.2153L95.712 28.062C94.9739 28.4727 94.2429 28.7595 93.519 28.9224C92.7951 29.0852 91.9292 29.1667 90.9215 29.1667C89.5162 29.1667 88.3204 28.9011 87.3339 28.37C86.3474 27.8389 85.5987 27.0919 85.0877 26.1288C84.5767 25.1658 84.3212 24.0469 84.3212 22.7723C84.3212 21.441 84.5838 20.2974 85.109 19.3414C85.6342 18.3855 86.3439 17.6632 87.2381 17.1746C88.1323 16.686 89.133 16.4417 90.2402 16.4417C92.0144 16.4417 93.4054 16.9551 94.4132 17.9818C95.421 19.0086 95.9249 20.5063 95.9249 22.4749V23.9407H88.3027C88.4588 24.6205 88.7817 25.1516 89.2714 25.534ZM88.9946 19.8832C88.6753 20.1381 88.4517 20.5771 88.3239 21.2003H92.0286C91.9718 20.6054 91.798 20.1735 91.507 19.9044C91.216 19.6353 90.7937 19.5008 90.2402 19.5008C89.7292 19.5008 89.314 19.6282 88.9946 19.8832ZM102.259 25.534C102.749 25.9164 103.469 26.1076 104.42 26.1076C104.974 26.1076 105.502 26.0403 106.006 25.9058C106.51 25.7712 107.088 25.5411 107.741 25.2153L108.7 28.062C107.961 28.4727 107.23 28.7595 106.507 28.9224C105.783 29.0852 104.917 29.1667 103.909 29.1667C102.504 29.1667 101.308 28.9011 100.321 28.37C99.335 27.8389 98.5863 27.0919 98.0753 26.1288C97.5643 25.1658 97.3088 24.0469 97.3088 22.7723C97.3088 21.441 97.5714 20.2974 98.0966 19.3414C98.6218 18.3855 99.3314 17.6632 100.226 17.1746C101.12 16.686 102.121 16.4417 103.228 16.4417C105.002 16.4417 106.393 16.9551 107.401 17.9818C108.409 19.0086 108.912 20.5063 108.912 22.4749V23.9407H101.29C101.446 24.6205 101.769 25.1516 102.259 25.534ZM101.982 19.8832C101.663 20.1381 101.439 20.5771 101.312 21.2003H105.016C104.959 20.6054 104.786 20.1735 104.495 19.9044C104.204 19.6353 103.781 19.5008 103.228 19.5008C102.717 19.5008 102.302 19.6282 101.982 19.8832ZM115.555 20.478V24.5355C115.555 25.0029 115.633 25.3322 115.789 25.5234C115.946 25.7146 116.229 25.8102 116.641 25.8102C117.11 25.8102 117.528 25.7535 117.897 25.6402V28.7843C117.415 28.8834 117.007 28.9578 116.673 29.0073C116.339 29.0569 115.981 29.0817 115.598 29.0817C114.335 29.0817 113.394 28.8055 112.777 28.2532C112.159 27.7008 111.851 26.9078 111.851 25.8739V20.478H110.19V17.2065H111.851V13.1701H115.555V17.2065H118.281V20.478H115.555ZM121.24 27.4778C120.19 26.366 119.664 24.7976 119.664 22.7723C119.664 20.7612 120.19 19.2069 121.24 18.1093C122.29 17.0117 123.809 16.4558 125.796 16.4417C126.52 16.4417 127.138 16.4842 127.649 16.5691C128.16 16.6541 128.692 16.8099 129.245 17.0365V20.393C128.72 20.1381 128.227 19.9611 127.766 19.8619C127.304 19.7628 126.79 19.7132 126.222 19.7132C125.271 19.7274 124.583 19.9894 124.157 20.4992C123.731 21.0091 123.518 21.7597 123.518 22.7511C123.518 23.7708 123.724 24.5497 124.136 25.0879C124.547 25.6261 125.207 25.8951 126.116 25.8951C126.627 25.8951 127.12 25.8172 127.595 25.6615C128.071 25.5057 128.564 25.2649 129.075 24.9392L130.118 27.9983C128.813 28.7772 127.372 29.1667 125.796 29.1667C123.809 29.1525 122.29 28.5896 121.24 27.4778ZM134.206 28.3275C133.241 27.7681 132.514 27.0069 132.024 26.0438C131.534 25.0808 131.289 23.9974 131.289 22.7936C131.289 21.6039 131.534 20.5276 132.024 19.5645C132.514 18.6014 133.241 17.8402 134.206 17.2808C135.171 16.7214 136.35 16.4417 137.741 16.4417C139.117 16.4417 140.288 16.7214 141.254 17.2808C142.219 17.8402 142.943 18.6014 143.425 19.5645C143.908 20.5276 144.149 21.6039 144.149 22.7936C144.149 23.9974 143.908 25.0808 143.425 26.0438C142.943 27.0069 142.219 27.7681 141.254 28.3275C140.288 28.887 139.117 29.1667 137.741 29.1667C136.35 29.1667 135.171 28.887 134.206 28.3275ZM139.646 25.1941C140.079 24.6417 140.295 23.8416 140.295 22.7936C140.295 21.7597 140.079 20.9666 139.646 20.4142C139.213 19.8619 138.578 19.5857 137.741 19.5857C136.889 19.5857 136.243 19.8619 135.803 20.4142C135.363 20.9666 135.143 21.7597 135.143 22.7936C135.143 23.8416 135.363 24.6417 135.803 25.1941C136.243 25.7464 136.889 26.0226 137.741 26.0226C138.578 26.0226 139.213 25.7464 139.646 25.1941ZM158.116 10.8333V28.8055H154.411V28.0195C153.404 28.7843 152.325 29.1667 151.175 29.1667C150.096 29.1667 149.142 28.9295 148.312 28.455C147.481 27.9806 146.828 27.2654 146.353 26.3094C145.877 25.3534 145.64 24.1815 145.64 22.7936C145.64 21.4198 145.877 20.2549 146.353 19.299C146.828 18.343 147.481 17.6278 148.312 17.1533C149.142 16.6789 150.096 16.4417 151.175 16.4417C152.325 16.4417 153.404 16.8241 154.411 17.5888V10.8333H158.116ZM154.411 25.0241V20.5842C153.602 20.0035 152.793 19.7132 151.984 19.7132C151.161 19.7132 150.54 19.9752 150.121 20.4992C149.703 21.0232 149.493 21.788 149.493 22.7936C149.493 23.8133 149.703 24.5851 150.121 25.1091C150.54 25.6331 151.161 25.8951 151.984 25.8951C152.793 25.8951 153.602 25.6048 154.411 25.0241ZM165.302 25.534C165.792 25.9164 166.512 26.1076 167.463 26.1076C168.017 26.1076 168.545 26.0403 169.049 25.9058C169.553 25.7712 170.131 25.5411 170.784 25.2153L171.742 28.062C171.004 28.4727 170.273 28.7595 169.549 28.9224C168.826 29.0852 167.96 29.1667 166.952 29.1667C165.547 29.1667 164.351 28.9011 163.364 28.37C162.378 27.8389 161.629 27.0919 161.118 26.1288C160.607 25.1658 160.352 24.0469 160.352 22.7723C160.352 21.441 160.614 20.2974 161.139 19.3414C161.665 18.3855 162.374 17.6632 163.269 17.1746C164.163 16.686 165.163 16.4417 166.271 16.4417C168.045 16.4417 169.436 16.9551 170.444 17.9818C171.451 19.0086 171.955 20.5063 171.955 22.4749V23.9407H164.333C164.489 24.6205 164.812 25.1516 165.302 25.534ZM165.025 19.8832C164.706 20.1381 164.482 20.5771 164.354 21.2003H168.059C168.002 20.6054 167.828 20.1735 167.537 19.9044C167.246 19.6353 166.824 19.5008 166.271 19.5008C165.76 19.5008 165.344 19.6282 165.025 19.8832ZM188.69 25.534V28.8055H178.981V12.7028H182.814V25.534H188.69ZM199.282 17.4083C200.099 17.8261 200.642 18.3819 200.911 19.0759C201.181 19.7699 201.316 20.655 201.316 21.7314V28.8055H197.611V27.8283C197.114 28.2815 196.625 28.6037 196.142 28.7949C195.659 28.9861 195.127 29.0817 194.545 29.0817C193.183 29.0817 192.114 28.7241 191.341 28.0089C190.567 27.2937 190.181 26.2988 190.181 25.0241C190.181 23.7354 190.574 22.744 191.362 22.05C192.15 21.3561 193.246 21.0091 194.652 21.0091C195.816 21.0091 196.802 21.2215 197.611 21.6464C197.597 21.2498 197.537 20.9347 197.43 20.701C197.324 20.4674 197.111 20.2868 196.791 20.1593C196.472 20.0319 196.007 19.9681 195.397 19.9681H192.97V16.7816H195.716C197.278 16.7816 198.466 16.9905 199.282 17.4083ZM197.611 25.2578V24.1319C196.93 23.8062 196.241 23.6433 195.546 23.6433C195.035 23.6433 194.637 23.7531 194.354 23.9726C194.07 24.1921 193.928 24.5285 193.928 24.9817C193.928 25.449 194.048 25.7748 194.29 25.9589C194.531 26.143 194.879 26.235 195.333 26.235C196.057 26.235 196.816 25.9093 197.611 25.2578ZM213.995 17.1533C214.825 17.6278 215.478 18.343 215.953 19.299C216.429 20.2549 216.667 21.4198 216.667 22.7936C216.667 24.1815 216.429 25.3534 215.953 26.3094C215.478 27.2654 214.825 27.9806 213.995 28.455C213.164 28.9295 212.21 29.1667 211.131 29.1667C209.981 29.1667 208.903 28.7843 207.895 28.0195V28.8055H204.19V10.8333H207.895V17.5888C208.903 16.8241 209.981 16.4417 211.131 16.4417C212.21 16.4417 213.164 16.6789 213.995 17.1533ZM212.185 25.1091C212.604 24.5851 212.813 23.8133 212.813 22.7936C212.813 21.788 212.604 21.0232 212.185 20.4992C211.766 19.9752 211.145 19.7132 210.322 19.7132C209.513 19.7132 208.704 20.0035 207.895 20.5842V25.0241C208.704 25.6048 209.513 25.8951 210.322 25.8951C211.145 25.8951 211.766 25.6331 212.185 25.1091Z" fill="#333333"/>
<g clip-path="url(#clip0)">
<path d="M0 12.9365L7.06355 20L0 27.0636L9.60312 36.6667L33.3333 12.9365L23.7302 3.33333L16.6667 10.3969L9.60312 3.33333L0 12.9365Z" fill="#333333"/>
<path d="M33.3333 27.0633L28.7975 22.5275L19.1944 32.1307L23.7302 36.6665L33.3333 27.0633Z" fill="#333333"/>
</g>
<defs>
<clipPath id="clip0">
<rect width="33.3333" height="33.3333" fill="white" transform="translate(0 3.33333)"/>
</clipPath>
</defs>
</svg>
