<svg width="16" height="16" viewBox="0 0 16 16" fill="none" xmlns="http://www.w3.org/2000/svg">
<path d="M4.35741 14.1129C4.24148 14.1133 4.12693 14.0878 4.02213 14.0382C3.91734 13.9886 3.82494 13.9162 3.7517 13.8264C3.67846 13.7365 3.62622 13.6314 3.59881 13.5188C3.57139 13.4061 3.56948 13.2888 3.59323 13.1753L4.21676 9.52786L1.56791 6.95402C1.46412 6.85263 1.39074 6.72425 1.35606 6.58336C1.32138 6.44248 1.32677 6.2947 1.37162 6.15672C1.41648 6.01873 1.49902 5.89604 1.60992 5.80248C1.72082 5.70892 1.85566 5.64823 1.99923 5.62725L5.65136 5.09748L7.28755 1.77822C7.35065 1.64511 7.45023 1.53264 7.57471 1.45389C7.6992 1.37513 7.84348 1.33333 7.99079 1.33333C8.13809 1.33333 8.28237 1.37513 8.40686 1.45389C8.53134 1.53264 8.63092 1.64511 8.69402 1.77822L10.3396 5.09748L14.0011 5.63194C14.1447 5.65292 14.2795 5.71361 14.3904 5.80717C14.5013 5.90073 14.5838 6.02342 14.6287 6.16141C14.6736 6.29939 14.679 6.44717 14.6443 6.58805C14.6096 6.72894 14.5362 6.85732 14.4324 6.95871L11.7836 9.54192L12.3977 13.1753C12.4222 13.3176 12.4066 13.4639 12.3526 13.5979C12.2986 13.7318 12.2085 13.8481 12.0922 13.9338C11.9759 14.0194 11.8381 14.071 11.6942 14.0827C11.5503 14.0945 11.4059 14.066 11.2772 14.0004L7.99547 12.2799L4.71371 14.0004C4.60592 14.0665 4.48359 14.1051 4.35741 14.1129ZM2.45867 6.50864L4.93406 8.92308C5.02501 9.01083 5.09308 9.11953 5.13231 9.23967C5.17154 9.35981 5.18074 9.48773 5.1591 9.61225L4.57307 13.0159L7.63448 11.4078C7.74587 11.3495 7.86974 11.3191 7.99547 11.3191C8.12121 11.3191 8.24508 11.3495 8.35647 11.4078L11.4179 13.0159L10.8319 9.60756C10.8102 9.48304 10.8194 9.35512 10.8586 9.23498C10.8979 9.11484 10.9659 9.00614 11.0569 8.91839L13.5323 6.50395L10.1099 6.007C9.9849 5.98877 9.86625 5.94041 9.76415 5.86608C9.66205 5.79175 9.57957 5.69369 9.52384 5.58037L7.99547 2.48614L6.46711 5.58506C6.41138 5.69838 6.3289 5.79644 6.2268 5.87077C6.1247 5.9451 6.00605 5.99346 5.88108 6.01169L2.45867 6.50864Z" fill="#CE464D"/>
<path d="M8.27231 1.98451L9.94601 5.37879C9.96796 5.42328 10.0003 5.46183 10.0403 5.49121C10.0803 5.52058 10.1267 5.53991 10.1757 5.54757L13.9263 6.0914C13.9814 6.10175 14.0326 6.12685 14.0745 6.16402C14.1164 6.20118 14.1474 6.24903 14.1642 6.30245C14.1811 6.35586 14.1831 6.41285 14.1701 6.46733C14.1571 6.52181 14.1296 6.57174 14.0904 6.61179L11.3806 9.25127C11.345 9.28607 11.3183 9.32897 11.3027 9.37631C11.2872 9.42365 11.2834 9.47404 11.2915 9.52318L11.9291 13.2738C11.9413 13.3333 11.9358 13.395 11.9131 13.4514C11.8905 13.5077 11.8517 13.5561 11.8017 13.5906C11.7518 13.6251 11.6927 13.6441 11.632 13.6453C11.5713 13.6465 11.5116 13.6298 11.4603 13.5973L8.11291 11.8345C8.06876 11.8115 8.0197 11.7995 7.96992 11.7995C7.92013 11.7995 7.87108 11.8115 7.82693 11.8345L4.50297 13.5832C4.45169 13.6157 4.39197 13.6324 4.33125 13.6312C4.27054 13.6301 4.21151 13.6111 4.16153 13.5766C4.11155 13.5421 4.07282 13.4936 4.05017 13.4373C4.02752 13.381 4.02195 13.3192 4.03415 13.2597L4.67175 9.50912C4.67989 9.45997 4.67604 9.40959 4.66053 9.36225C4.64502 9.31491 4.61831 9.27201 4.58267 9.2372L1.901 6.61179C1.86049 6.57157 1.83189 6.52093 1.81837 6.46546C1.80485 6.40999 1.80694 6.35186 1.82441 6.29751C1.84188 6.24316 1.87405 6.1947 1.91736 6.15749C1.96066 6.12029 2.01341 6.09579 2.06978 6.08671L5.82036 5.54288C5.86938 5.53522 5.91584 5.51589 5.95582 5.48652C5.9958 5.45715 6.02813 5.41859 6.05009 5.3741L7.72379 1.97982C7.75038 1.92993 7.79014 1.88829 7.83875 1.85941C7.88735 1.83052 7.94293 1.81551 7.99947 1.81599C8.056 1.81647 8.11132 1.83244 8.15942 1.86215C8.20752 1.89186 8.24657 1.93418 8.27231 1.98451Z" fill="#FAFAFA"/>
</svg>
