<svg width="24" height="24" viewBox="0 0 24 24" fill="none" xmlns="http://www.w3.org/2000/svg">
<g clip-path="url(#clip0)">
<path d="M4.41225 11.6295C4.0663 12.1492 3.92128 13.7836 4.04183 14.8672C4.08377 15.2246 4.15366 15.523 4.25325 15.7016C4.39128 15.9475 4.62367 16.0951 4.8875 16.1033C5.05698 16.1115 5.16356 16.0836 8.35228 15.1213C8.35228 15.1213 9.76929 14.6967 9.77628 14.6934C10.1292 14.6082 10.3686 14.3033 10.3913 13.9148C10.414 13.5148 10.1956 13.1623 9.83219 13.0361C9.83219 13.0361 8.83277 12.6541 8.83102 12.6541C5.40294 11.3279 5.24918 11.2754 5.0762 11.2738C4.81062 11.2656 4.57649 11.3902 4.41225 11.6295ZM12.0791 21.5131C12.1351 21.3623 12.142 21.259 12.1508 18.1148C12.1508 18.1148 12.1578 16.7262 12.1595 16.7115C12.1822 16.3705 11.9481 16.0607 11.5637 15.9213C11.1671 15.7787 10.7408 15.8672 10.5014 16.1459C10.5014 16.1459 9.80249 16.9246 9.799 16.9246C7.39829 19.5705 7.29695 19.6935 7.23929 19.8492C7.20259 19.941 7.19036 20.0394 7.20085 20.1377C7.21483 20.2787 7.28297 20.4164 7.39479 20.5459C7.95216 21.1672 10.6219 22.0886 11.4746 21.9508C11.7734 21.9033 11.9883 21.7476 12.0791 21.5131ZM17.4973 20.4197C18.3028 20.1181 20.0588 18.023 20.1829 17.2148C20.2265 16.9344 20.1322 16.6918 19.926 16.5377C19.7915 16.4426 19.6884 16.4049 16.4997 15.423C16.4997 15.423 15.1019 14.9902 15.0827 14.982C14.7437 14.859 14.3575 14.9738 14.099 15.2738C13.8281 15.582 13.7879 15.9902 14.0046 16.2967L14.5672 17.1557C16.4595 20.0394 16.6045 20.2426 16.7408 20.3426C16.9505 20.4984 17.2178 20.5246 17.4973 20.4197ZM15.8497 12.9967C19.4717 12.1738 19.6133 12.1295 19.7548 12.041C19.9749 11.9016 20.085 11.6705 20.0658 11.3885C20.0658 11.3803 20.0675 11.3705 20.0658 11.3606C19.9732 10.5246 18.4146 8.35408 17.6459 8.00162C17.3733 7.87866 17.1007 7.88686 16.8753 8.02948C16.7355 8.11473 16.6325 8.24424 14.693 10.7344C14.693 10.7344 13.8176 11.8541 13.8072 11.8656C13.5765 12.1295 13.573 12.5066 13.7984 12.8311C14.0326 13.1672 14.4274 13.3295 14.7891 13.2361C14.7891 13.2361 14.7751 13.2607 14.7716 13.2639C14.9499 13.2 15.2679 13.1262 15.8497 12.9967ZM12.2137 10.1901C12.1508 8.8426 11.7192 2.84422 11.6685 2.56717C11.5952 2.31471 11.3855 2.13602 11.085 2.06389C10.1589 1.84913 6.62426 2.77864 5.96904 3.41143C5.75763 3.61799 5.68075 3.87045 5.74365 4.09504C5.84674 4.2934 10.2271 10.759 10.2271 10.759C10.8735 11.7443 11.403 11.5902 11.5759 11.5393C11.7472 11.4918 12.2731 11.3377 12.2137 10.1901Z" fill="#FAFAFA"/>
</g>
<defs>
<clipPath id="clip0">
<rect width="16.192" height="20" fill="white" transform="translate(4 2)"/>
</clipPath>
</defs>
</svg>
