<svg width="76" height="38" viewBox="0 0 76 38" fill="none" xmlns="http://www.w3.org/2000/svg">
<path d="M5.13636 15C8.68182 15 10.8295 12.8068 10.8295 9.17045C10.8295 5.54545 8.68182 3.36364 5.17045 3.36364H1.01136V15H5.13636ZM3.47159 12.892V5.47159H5.03977C7.22159 5.47159 8.375 6.58523 8.375 9.17045C8.375 11.767 7.22159 12.892 5.03409 12.892H3.47159ZM12.652 15H20.5156V12.9716H15.1122V10.1932H20.0895V8.16477H15.1122V5.39205H20.4929V3.36364H12.652V15ZM22.4489 3.36364V15H24.8352V7.39773H24.9318L27.9432 14.9432H29.5682L32.5795 7.42614H32.6761V15H35.0625V3.36364H32.0284L28.8239 11.1818H28.6875L25.483 3.36364H22.4489ZM47.7827 9.18182C47.7827 5.375 45.419 3.20455 42.3338 3.20455C39.2315 3.20455 36.8849 5.375 36.8849 9.18182C36.8849 12.9716 39.2315 15.1591 42.3338 15.1591C45.419 15.1591 47.7827 12.9886 47.7827 9.18182ZM45.2884 9.18182C45.2884 11.6477 44.1179 12.983 42.3338 12.983C40.544 12.983 39.3793 11.6477 39.3793 9.18182C39.3793 6.71591 40.544 5.38068 42.3338 5.38068C44.1179 5.38068 45.2884 6.71591 45.2884 9.18182ZM1.01136 34H3.47159V30.2273H5.53977C8.21591 30.2273 9.77273 28.6307 9.77273 26.3068C9.77273 23.9943 8.24432 22.3636 5.60227 22.3636H1.01136V34ZM3.47159 28.2557V24.375H5.13068C6.55114 24.375 7.23864 25.1477 7.23864 26.3068C7.23864 27.4602 6.55114 28.2557 5.14205 28.2557H3.47159ZM11.3707 34H13.831V29.875H15.6264L17.831 34H20.5469L18.0753 29.4773C19.3991 28.9091 20.1321 27.7557 20.1321 26.1648C20.1321 23.8523 18.6037 22.3636 15.9616 22.3636H11.3707V34ZM13.831 27.8977V24.375H15.4901C16.9105 24.375 17.598 25.0057 17.598 26.1648C17.598 27.3182 16.9105 27.8977 15.5014 27.8977H13.831ZM32.5639 28.1818C32.5639 24.375 30.2003 22.2045 27.1151 22.2045C24.0128 22.2045 21.6662 24.375 21.6662 28.1818C21.6662 31.9716 24.0128 34.1591 27.1151 34.1591C30.2003 34.1591 32.5639 31.9886 32.5639 28.1818ZM30.0696 28.1818C30.0696 30.6477 28.8991 31.983 27.1151 31.983C25.3253 31.983 24.1605 30.6477 24.1605 28.1818C24.1605 25.7159 25.3253 24.3807 27.1151 24.3807C28.8991 24.3807 30.0696 25.7159 30.0696 28.1818ZM39.0455 22.3636V30.4773C39.0398 31.5966 38.5398 32.1875 37.6307 32.1875C36.7727 32.1875 36.2159 31.6534 36.1989 30.7273H33.75C33.7386 33.0511 35.3977 34.1591 37.5057 34.1591C39.8636 34.1591 41.4716 32.733 41.4773 30.4773V22.3636H39.0455ZM43.5114 34H51.375V31.9716H45.9716V29.1932H50.9489V27.1648H45.9716V24.392H51.3523V22.3636H43.5114V34ZM63.5753 26.4375C63.2514 23.75 61.2173 22.2045 58.5241 22.2045C55.4503 22.2045 53.1037 24.375 53.1037 28.1818C53.1037 31.9773 55.4105 34.1591 58.5241 34.1591C61.5071 34.1591 63.3082 32.1761 63.5753 30.0341L61.0866 30.0227C60.8537 31.267 59.8764 31.983 58.5639 31.983C56.7969 31.983 55.598 30.6705 55.598 28.1818C55.598 25.7614 56.7798 24.3807 58.581 24.3807C59.9276 24.3807 60.8991 25.1591 61.0866 26.4375H63.5753ZM64.8963 24.392H68.4588V34H70.8906V24.392H74.4531V22.3636H64.8963V24.392Z" fill="#040C35"/>
<rect x="52" y="7" width="23" height="3" fill="#CE464D"/>
</svg>
