<svg width="14" height="14" viewBox="0 0 14 14" fill="none" xmlns="http://www.w3.org/2000/svg">
<path d="M3.35741 13.1129C3.24148 13.1133 3.12693 13.0878 3.02213 13.0382C2.91734 12.9886 2.82494 12.9162 2.7517 12.8264C2.67846 12.7365 2.62622 12.6314 2.59881 12.5188C2.57139 12.4061 2.56948 12.2888 2.59323 12.1753L3.21676 8.52786L0.567911 5.95402C0.464123 5.85263 0.390744 5.72425 0.35606 5.58336C0.321375 5.44248 0.326766 5.2947 0.371623 5.15672C0.41648 5.01873 0.499017 4.89604 0.609916 4.80248C0.720815 4.70892 0.85566 4.64823 0.999228 4.62725L4.65136 4.09748L6.28755 0.778215C6.35065 0.645108 6.45023 0.532642 6.57471 0.453888C6.6992 0.375135 6.84348 0.333328 6.99079 0.333328C7.13809 0.333328 7.28237 0.375135 7.40686 0.453888C7.53134 0.532642 7.63092 0.645108 7.69402 0.778215L9.33959 4.09748L13.0011 4.63194C13.1447 4.65292 13.2795 4.71361 13.3904 4.80717C13.5013 4.90073 13.5838 5.02342 13.6287 5.16141C13.6736 5.29939 13.679 5.44717 13.6443 5.58805C13.6096 5.72894 13.5362 5.85732 13.4324 5.95871L10.7836 8.54192L11.3977 12.1753C11.4222 12.3176 11.4066 12.4639 11.3526 12.5979C11.2986 12.7318 11.2085 12.8481 11.0922 12.9338C10.9759 13.0194 10.8381 13.071 10.6942 13.0827C10.5503 13.0945 10.4059 13.066 10.2772 13.0004L6.99547 11.2799L3.71371 13.0004C3.60592 13.0665 3.48359 13.1051 3.35741 13.1129ZM1.45867 5.50864L3.93406 7.92308C4.02501 8.01083 4.09308 8.11953 4.13231 8.23967C4.17154 8.35981 4.18074 8.48773 4.1591 8.61225L3.57307 12.0159L6.63448 10.4078C6.74587 10.3495 6.86974 10.3191 6.99547 10.3191C7.12121 10.3191 7.24508 10.3495 7.35647 10.4078L10.4179 12.0159L9.83185 8.60756C9.81021 8.48304 9.81941 8.35512 9.85864 8.23498C9.89787 8.11484 9.96594 8.00614 10.0569 7.91839L12.5323 5.50395L9.10987 5.007C8.9849 4.98877 8.86625 4.94041 8.76415 4.86608C8.66205 4.79175 8.57957 4.69369 8.52384 4.58037L6.99547 1.48614L5.46711 4.58506C5.41138 4.69838 5.3289 4.79644 5.2268 4.87077C5.1247 4.9451 5.00605 4.99346 4.88108 5.01169L1.45867 5.50864Z" fill="#CE464D"/>
<path d="M7.27231 0.984511L8.94601 4.37879C8.96796 4.42328 9.00029 4.46183 9.04027 4.49121C9.08026 4.52058 9.12671 4.53991 9.17573 4.54757L12.9263 5.0914C12.9814 5.10175 13.0326 5.12685 13.0745 5.16402C13.1164 5.20118 13.1474 5.24903 13.1642 5.30245C13.1811 5.35586 13.1831 5.41285 13.1701 5.46733C13.1571 5.52181 13.1296 5.57174 13.0904 5.61179L10.3806 8.25127C10.345 8.28607 10.3183 8.32897 10.3027 8.37631C10.2872 8.42365 10.2834 8.47404 10.2915 8.52318L10.9291 12.2738C10.9413 12.3333 10.9358 12.395 10.9131 12.4514C10.8905 12.5077 10.8517 12.5561 10.8017 12.5906C10.7518 12.6251 10.6927 12.6441 10.632 12.6453C10.5713 12.6465 10.5116 12.6298 10.4603 12.5973L7.11291 10.8345C7.06876 10.8115 7.0197 10.7995 6.96992 10.7995C6.92013 10.7995 6.87108 10.8115 6.82693 10.8345L3.50297 12.5832C3.45169 12.6157 3.39197 12.6324 3.33125 12.6312C3.27054 12.6301 3.21151 12.6111 3.16153 12.5766C3.11155 12.5421 3.07282 12.4936 3.05017 12.4373C3.02752 12.381 3.02195 12.3192 3.03415 12.2597L3.67175 8.50912C3.67989 8.45997 3.67604 8.40959 3.66053 8.36225C3.64502 8.31491 3.61831 8.27201 3.58267 8.2372L0.901003 5.61179C0.860486 5.57157 0.831886 5.52093 0.818368 5.46546C0.804851 5.40999 0.806943 5.35186 0.824414 5.29751C0.841884 5.24316 0.874052 5.1947 0.917357 5.15749C0.960661 5.12029 1.01341 5.09579 1.06978 5.08671L4.82036 4.54288C4.86938 4.53522 4.91584 4.51589 4.95582 4.48652C4.9958 4.45715 5.02813 4.41859 5.05009 4.3741L6.72379 0.979823C6.75038 0.929935 6.79014 0.888288 6.83875 0.859405C6.88735 0.830522 6.94293 0.815507 6.99947 0.81599C7.056 0.816474 7.11132 0.832437 7.15942 0.862146C7.20752 0.891855 7.24657 0.934176 7.27231 0.984511Z" fill="#FAFAFA"/>
</svg>
